<svg height="512" viewBox="0 0 58 58" width="512" xmlns="http://www.w3.org/2000/svg"><g id="Page-1" fill="none" fill-rule="evenodd"><g id="011---No-Email" fill-rule="nonzero"><path id="Shape" d="m57.92 20.06c-.1296692-.4408841-.4045421-.8250014-.78-1.09l-9.14-6.3h-38l-9.14 6.3c-.37545789.2649986-.65033083.6491159-.78 1.09-.05180126.1822042-.07871202.3705796-.08.56v35.38c-.00385931.4302949.1370164.8494002.4 1.19.37337358.5100237.96791534.8110105 1.6.81h54c.6320847.0010105 1.2266264-.2999763 1.6-.81.2629836-.3405998.4038593-.7597051.4-1.19v-35.38c-.001288-.1894204-.0281987-.3777958-.08-.56z" fill="#f0c419"/><path id="Shape" d="m57.92 20.06-9.92 7.53v-14.92l9.14 6.3c.3754579.2649986.6503308.6491159.78 1.09z" fill="#f29c1f"/><path id="Shape" d="m10 12.67v14.92l-9.92-7.53c.12966917-.4408841.40454211-.8250014.78-1.09z" fill="#f29c1f"/><path id="Shape" d="m57.6 57.19c-.3733736.5100237-.9679153.8110105-1.6.81h-54c-.63208466.0010105-1.22662642-.2999763-1.6-.81l24.31-18.44 3.08-2.34c.7129266-.5499708 1.7070734-.5499708 2.42 0l3.08 2.34z" fill="#f3d55b"/><path id="Shape" d="m48 1v26.59l-14.71 11.16-3.08-2.34c-.7129266-.5499708-1.7070734-.5499708-2.42 0l-3.08 2.34-14.71-11.16v-26.59c0-.55228475.4477153-1 1-1h36c.5522847 0 1 .44771525 1 1z" fill="#ecf0f1"/><path id="Shape" d="m29 4c-7.7319865 0-14 6.2680135-14 14s6.2680135 14 14 14 14-6.2680135 14-14c0-3.7130309-1.4749958-7.2739856-4.1005051-9.89949494-2.6255093-2.62550929-6.186464-4.10050506-9.8994949-4.10050506zm-9.01 18.34c-1.8455945-3.8293234-1.0685718-8.4069269 1.9372506-11.4127494 3.0058225-3.00582238 7.583426-3.78284508 11.4127494-1.9372506.2854523.145772.4837315.41954013.5332123.73621683.0494807.31667667-.0558341.63788137-.2832123.86378317l-12 12c-.2259018.2273782-.5471065.332693-.8637832.2832123-.3166767-.0494808-.5904448-.24776-.7362168-.5332123zm10.22 5.59c-1.8998901.2293417-3.8257296-.0898966-5.55-.92-.2854523-.145772-.4837315-.4195401-.5332123-.7362168-.0494807-.3166767.0558341-.6378814.2832123-.8637832l12-12c.2259018-.2273782.5471065-.332693.8637832-.2832123.3166767.0494808.5904448.24776.7362168.5332123 1.4010484 2.9057213 1.3143368 6.3088565-.2328727 9.1394564s-4.3648778 4.7409907-7.5671273 5.1305436z" fill="#e64c3c"/><path id="Shape" d="m4 49c-.55228475 0-1-.4477153-1-1v-18c0-.5522847.44771525-1 1-1s1 .4477153 1 1v18c0 .5522847-.44771525 1-1 1z" fill="#f3d55b"/><path id="Shape" d="m54 49c-.5522847 0-1-.4477153-1-1v-18c0-.5522847.4477153-1 1-1s1 .4477153 1 1v18c0 .5522847-.4477153 1-1 1z" fill="#f3d55b"/><path id="Shape" d="m44 55h-30c-.5522847 0-1-.4477153-1-1s.4477153-1 1-1h30c.5522847 0 1 .4477153 1 1s-.4477153 1-1 1z" fill="#f9eab0"/></g></g></svg>