<?xml version="1.0" encoding="iso-8859-1"?>
<!-- Generator: Adobe Illustrator 19.0.0, SVG Export Plug-In . SVG Version: 6.00 Build 0)  -->
<svg version="1.1" id="Capa_1" xmlns="http://www.w3.org/2000/svg" xmlns:xlink="http://www.w3.org/1999/xlink" x="0px" y="0px"
	 viewBox="0 0 511.998 511.998" style="enable-background:new 0 0 511.998 511.998;" xml:space="preserve">
<path style="fill:#FF6D3A;" d="M352.436,9.682L184.762,244.041h142.385L490.482,15.749c2.468-3.45,0.002-8.246-4.24-8.246H356.676
	C354.994,7.503,353.415,8.314,352.436,9.682z"/>
<polygon style="fill:#E1EFFB;" points="452.083,7.503 282.838,244.041 233.934,244.041 403.179,7.503 "/>
<g>
	<path style="fill:#61AFF6;" d="M486.242,7.503h-34.159L282.838,244.041h44.31L490.482,15.749
		C492.95,12.299,490.484,7.503,486.242,7.503z"/>
	<path style="fill:#61AFF6;" d="M21.516,15.749L184.85,244.04h142.388L159.564,9.682c-0.979-1.368-2.558-2.18-4.24-2.18H25.756
		C21.514,7.503,19.048,12.299,21.516,15.749z"/>
</g>
<polygon style="fill:#E1EFFB;" points="62.535,7.503 231.781,244.041 280.685,244.041 111.439,7.503 "/>
<path style="fill:#FF6D3A;" d="M25.756,7.503c-4.242,0-6.708,4.797-4.24,8.246L184.85,244.04h46.93L62.535,7.503H25.756z"/>
<polygon style="fill:#49A0E8;" points="331.621,175.861 305.039,213.012 327.193,243.977 345.464,218.44 353.774,206.824 "/>
<polygon style="fill:#C3D8E5;" points="305.039,213.012 331.621,175.861 307.17,141.686 280.588,178.837 "/>
<polygon style="fill:#ED5729;" points="307.17,141.686 282.581,107.319 256,144.471 280.588,178.837 "/>
<path style="fill:#B9BBC1;" d="M273.191,211.345L273.191,211.345c6.794,6.742,16.902,8.89,25.85,5.495l0,0
	c12.534-4.756,26.558,1.488,31.411,13.985l0,0c3.465,8.922,11.824,14.996,21.381,15.534l0,0
	c13.385,0.753,23.657,12.162,23.007,25.552l0,0c-0.464,9.56,4.703,18.509,13.214,22.887l0,0
	c11.921,6.133,16.665,20.732,10.625,32.701l0,0c-4.312,8.545-3.232,18.822,2.762,26.283l0,0c8.396,10.451,6.792,25.718-3.594,34.195
	l0,0c-7.415,6.052-10.608,15.88-8.167,25.134l0,0c3.42,12.963-4.256,26.257-17.192,29.777l0,0
	c-9.236,2.513-16.15,10.192-17.684,19.64l0,0c-2.148,13.233-14.568,22.256-27.817,20.21l0,0
	c-9.459-1.461-18.899,2.742-24.143,10.749l0,0c-7.345,11.215-22.361,14.407-33.632,7.149l0,0c-8.047-5.182-18.381-5.182-26.428,0
	l0,0c-11.272,7.258-26.287,4.066-33.632-7.149l0,0c-5.244-8.007-14.684-12.21-24.143-10.749l0,0
	c-13.249,2.046-25.669-6.977-27.817-20.21l0,0c-1.534-9.448-8.448-17.127-17.684-19.64l0,0
	c-12.936-3.52-20.611-16.814-17.192-29.777l0,0c2.441-9.255-0.752-19.082-8.167-25.134l0,0c-10.386-8.477-11.99-23.744-3.594-34.195
	l0,0c5.995-7.462,7.075-17.738,2.762-26.283l0,0c-6.04-11.969-1.296-26.568,10.625-32.701l0,0
	c8.511-4.378,13.678-13.327,13.214-22.887l0,0c-0.65-13.39,9.622-24.799,23.007-25.552l0,0c9.556-0.538,17.916-6.612,21.381-15.534
	l0,0c4.853-12.497,18.877-18.741,31.411-13.985l0,0c8.949,3.395,19.056,1.247,25.85-5.495l0,0
	C248.323,201.902,263.675,201.902,273.191,211.345z"/>
<path style="fill:#A0A3AA;" d="M401.442,353.782L401.442,353.782c-5.995-7.462-7.075-17.738-2.762-26.283l0,0
	c6.04-11.969,1.296-26.568-10.625-32.701l0,0c-8.511-4.378-13.678-13.327-13.214-22.887c0.65-13.391-9.622-24.799-23.007-25.552l0,0
	c-9.556-0.538-17.916-6.612-21.381-15.534l0,0c-4.853-12.497-18.877-18.741-31.411-13.985l0,0
	c-8.949,3.395-19.056,1.247-25.85-5.495l0,0c-9.516-9.443-24.867-9.443-34.384,0l0,0c-1.605,1.593-3.4,2.92-5.317,3.987
	c6.194,3.45,13.699,4.1,20.534,1.507l0,0c12.534-4.756,26.558,1.488,31.411,13.985l0,0c3.465,8.922,11.825,14.996,21.381,15.534l0,0
	c13.385,0.753,23.657,12.162,23.007,25.552c-0.464,9.56,4.703,18.509,13.214,22.887l0,0c11.921,6.133,16.665,20.732,10.625,32.701
	l0,0c-4.312,8.545-3.232,18.822,2.762,26.283l0,0c8.396,10.451,6.792,25.718-3.594,34.195l0,0
	c-7.415,6.052-10.608,15.88-8.167,25.135c3.42,12.963-4.256,26.257-17.192,29.777l0,0c-9.236,2.513-16.15,10.192-17.684,19.64
	c-2.148,13.233-14.568,22.256-27.817,20.21c-9.459-1.461-18.899,2.742-24.143,10.749l0,0c-0.779,1.19-1.649,2.283-2.587,3.289
	c4.846-0.15,9.727,1.126,13.972,3.86l0,0c11.272,7.258,26.287,4.066,33.632-7.149l0,0c5.244-8.007,14.684-12.21,24.143-10.749
	c13.249,2.046,25.669-6.977,27.817-20.21c1.534-9.448,8.448-17.127,17.684-19.64l0,0c12.936-3.52,20.611-16.814,17.192-29.777
	c-2.441-9.255,0.752-19.082,8.167-25.135l0,0C408.234,379.5,409.838,364.233,401.442,353.782z"/>
<circle style="fill:#E1EFFB;" cx="255.999" cy="354.25" r="113.44"/>
<path style="fill:#C3D8E5;" d="M255.999,240.807c-7.707,0-15.233,0.772-22.509,2.237c51.867,10.442,90.929,56.258,90.929,111.201
	s-39.062,100.759-90.929,111.201c7.275,1.465,14.802,2.237,22.509,2.237c62.65,0,113.438-50.788,113.438-113.438
	S318.649,240.807,255.999,240.807z"/>
<path d="M497.55,6.901C495.362,2.644,491.028,0,486.242,0H356.676c-4.094,0-7.96,1.988-10.342,5.316L256,131.576L165.666,5.317
	C163.284,1.988,159.418,0,155.324,0H25.756c-4.786,0-9.12,2.645-11.308,6.901c-2.189,4.257-1.819,9.32,0.966,13.214l153.89,215.092
	c-2.687,2.135-6.006,3.46-9.561,3.66c-17.432,0.981-30.926,15.968-30.08,33.407c0.32,6.605-3.272,12.827-9.152,15.851
	c-15.526,7.987-21.758,27.166-13.891,42.753c2.979,5.903,2.227,13.048-1.914,18.204c-10.936,13.611-8.828,33.667,4.699,44.707
	c5.123,4.181,7.343,11.014,5.655,17.408c-4.453,16.882,5.63,34.346,22.477,38.93c6.38,1.736,11.188,7.076,12.248,13.602
	c2.798,17.234,19.112,29.087,36.367,26.423c6.535-1.008,13.1,1.914,16.722,7.445c9.566,14.607,29.291,18.8,43.971,9.346
	c5.559-3.579,12.745-3.579,18.304,0c5.313,3.421,11.286,5.055,17.199,5.055c10.427,0,20.668-5.08,26.772-14.401
	c3.622-5.532,10.186-8.453,16.722-7.445c17.254,2.666,33.569-9.189,36.367-26.422c1.06-6.527,5.867-11.867,12.248-13.603
	c16.848-4.584,26.93-22.048,22.476-38.93c-1.686-6.394,0.533-13.227,5.656-17.408c13.527-11.04,15.635-31.096,4.699-44.707
	c-4.141-5.155-4.892-12.301-1.914-18.203c7.867-15.587,1.635-34.766-13.891-42.754c-5.88-3.025-9.472-9.247-9.152-15.852
	c0.846-17.439-12.647-32.425-30.079-33.406c-3.555-0.2-6.875-1.525-9.562-3.66L496.585,20.114
	C499.369,16.221,499.739,11.158,497.55,6.901z M437.489,15.006l-132.45,185.112l-15.226-21.281L407.037,15.006H437.489z
	 M357.853,15.006h30.732L280.588,165.943l-15.362-21.472L357.853,15.006z M154.147,15.006l139.887,195.519
	c-5.554,1.224-11.45-0.429-15.557-4.505c-6.17-6.122-14.265-9.194-22.369-9.221L126.033,15.006H154.147z M107.582,15.006
	l132.928,185.78c-2.504,1.386-4.862,3.124-6.988,5.233c-4.393,4.359-10.834,5.947-16.71,4.207L77.13,15.006H107.582z M30.21,15.006
	h28.468l138.506,193.577c-7.668,1.774-14.585,6.347-19.173,13.004L30.21,15.006z M351.411,253.85
	c9.235,0.52,16.383,8.459,15.935,17.697c-0.605,12.468,6.176,24.213,17.276,29.923c8.225,4.231,11.526,14.391,7.359,22.649
	c-5.624,11.143-4.207,24.631,3.612,34.362c5.793,7.211,4.677,17.835-2.489,23.684c-9.671,7.893-13.862,20.791-10.678,32.861
	c2.36,8.943-2.982,18.194-11.906,20.623c-12.044,3.277-21.119,13.356-23.121,25.677c-1.481,9.13-10.131,15.407-19.265,13.998
	c-12.339-1.904-24.726,3.611-31.566,14.054c-5.066,7.738-15.514,9.959-23.293,4.951c-5.248-3.379-11.261-5.068-17.276-5.068
	c-6.014,0-12.029,1.69-17.276,5.068c-7.777,5.007-18.227,2.786-23.293-4.952c-6.84-10.441-19.232-15.959-31.566-14.053
	c-9.141,1.41-17.783-4.868-19.265-13.999c-2.002-12.321-11.077-22.399-23.121-25.676c-8.924-2.429-14.266-11.68-11.907-20.623
	c3.185-12.069-1.006-24.968-10.677-32.861c-7.166-5.849-8.282-16.474-2.489-23.684c7.818-9.731,9.236-23.219,3.612-34.363
	c-4.167-8.257-0.866-18.417,7.359-22.648c11.1-5.71,17.881-17.455,17.276-29.923c-0.448-9.239,6.7-17.177,15.935-17.697
	c9.822-0.553,18.704-5.635,24.245-13.454c0.104-0.133,0.2-0.27,0.294-0.409c1.362-1.989,2.519-4.142,3.414-6.447
	c3.348-8.622,13.107-12.968,21.755-9.686c11.669,4.427,24.935,1.608,33.797-7.184c6.565-6.515,17.249-6.515,23.814,0
	c8.862,8.792,22.129,11.613,33.798,7.184c8.644-3.281,18.406,1.063,21.754,9.686c0.228,0.586,0.51,1.145,0.743,1.723
	c3.037,7.543,9.761,12.146,9.761,12.146C338.925,251.165,344.964,253.486,351.411,253.85z M333.986,221.587
	c-4.146-6.015-10.195-10.323-16.98-12.407L455.941,15.006h25.847L333.986,221.587z"/>
<path d="M176.85,262.798c-21.731,18.824-36.078,44.763-40.398,73.038c-0.626,4.096,2.187,7.924,6.284,8.55
	c0.384,0.059,0.766,0.087,1.143,0.087c3.643,0,6.84-2.658,7.407-6.371c3.782-24.755,16.35-47.47,35.389-63.962
	c19.229-16.657,43.849-25.83,69.324-25.83c25.47,0,50.085,9.169,69.312,25.82c19.038,16.485,31.609,39.193,35.397,63.94
	c0.627,4.095,4.46,6.912,8.552,6.281c4.096-0.627,6.909-4.456,6.282-8.552c-4.329-28.267-18.679-54.196-40.407-73.012
	c-21.955-19.012-50.059-29.482-79.136-29.482C226.916,233.304,198.806,243.779,176.85,262.798z"/>
<path d="M369.263,364.104c-4.088-0.624-7.924,2.187-8.55,6.284c-3.782,24.755-16.35,47.47-35.389,63.962
	c-19.229,16.657-43.849,25.83-69.324,25.83c-25.42,0-50-9.138-69.21-25.731c-19.017-16.426-31.609-39.066-35.456-63.748
	c-0.637-4.094-4.468-6.898-8.569-6.258c-4.094,0.638-6.896,4.475-6.257,8.569c4.394,28.194,18.768,54.046,40.473,72.794
	c21.935,18.947,49.998,29.381,79.018,29.381c29.083,0,57.193-10.474,79.149-29.494c21.731-18.824,36.078-44.763,40.398-73.038
	C376.173,368.557,373.359,364.729,369.263,364.104z"/>
<path d="M253.643,299.61c16.163,0,29.818,11.008,29.818,27.728c0,29.957-45.145,39.71-45.145,55.734v5.294h40.964
	c2.508,0,4.877,2.926,4.877,6.41c0,3.483-2.369,6.688-4.877,6.688h-49.603c-2.787,0-6.548-1.951-6.548-4.877v-13.515
	c0-22.573,45.562-33.859,45.562-55.316c0-6.827-4.459-14.63-15.048-14.63c-7.803,0-14.073,4.319-14.073,13.794
	c0,2.787-2.926,5.573-7.803,5.573c-3.901,0-6.688-1.95-6.688-8.22C225.08,309.364,238.456,299.61,253.643,299.61z"/>
<g>
</g>
<g>
</g>
<g>
</g>
<g>
</g>
<g>
</g>
<g>
</g>
<g>
</g>
<g>
</g>
<g>
</g>
<g>
</g>
<g>
</g>
<g>
</g>
<g>
</g>
<g>
</g>
<g>
</g>
</svg>
