<svg id="Layer_1" enable-background="new 0 0 512 512" height="512" viewBox="0 0 512 512" width="512" xmlns="http://www.w3.org/2000/svg"><g><path d="m440.8 319.82c0 51.02-20.7 97.21-54.17 130.63-33.44 33.4-79.62 54.05-130.63 54.05-7.43 0-14.75-.44-21.95-1.29-42.24-4.99-80.11-24.22-108.68-52.76-33.47-33.42-54.17-79.61-54.17-130.63 0-51 20.68-97.16 54.13-130.58 28.58-28.57 66.49-47.82 108.76-52.81 7.18-.84 14.5-1.28 21.91-1.28 51.03 0 97.23 20.67 130.67 54.09 33.45 33.42 54.13 79.58 54.13 130.58z" fill="#e8f4f9"/><g fill="#d4e3e8"><path d="m440.8 319.82c0 51.02-20.7 97.21-54.17 130.63-33.44 33.4-79.62 54.05-130.63 54.05-7.43 0-14.75-.44-21.95-1.29 93.56-10.82 177.58-88.8 177.58-183.39 0-94.58-84-172.55-177.54-183.39 7.18-.84 14.5-1.28 21.91-1.28 51.03 0 97.23 20.67 130.67 54.09 33.45 33.42 54.13 79.58 54.13 130.58z"/><path d="m386.67 189.24-18.5 18.5-112.13 112.13-.04.04-130.67-130.67c28.58-28.57 66.49-47.82 108.76-52.81 7.18-.84 14.5-1.28 21.91-1.28 51.03 0 97.23 20.67 130.67 54.09z"/><path d="m386.63 450.45c-33.44 33.4-79.62 54.05-130.63 54.05-7.43 0-14.75-.44-21.95-1.29-42.24-4.99-80.11-24.22-108.68-52.76l130.59-130.58.04-.05.04.05 112.09 112.08z"/></g><g fill="#b8cdd3"><path d="m368.13 431.95 18.5 18.5c-33.44 33.4-79.62 54.05-130.63 54.05-7.43 0-14.75-.44-21.95-1.29 51.85-5.99 100.77-32.61 134.08-71.26z"/><path d="m234.09 136.43c7.18-.84 14.5-1.28 21.91-1.28 51.03 0 97.23 20.67 130.67 54.09l-18.5 18.5c-33.3-38.66-82.23-65.3-134.08-71.31z"/></g><path d="m411.63 319.82c0 85.9-69.68 155.53-155.63 155.53-4.84 0-9.62-.22-14.35-.66-79.22-7.23-141.28-73.8-141.28-154.87 0-81.06 62.06-147.64 141.28-154.87 4.73-.44 9.51-.66 14.35-.66 85.95 0 155.63 69.64 155.63 155.53z" fill="#b8cdd3"/><path d="m411.63 319.82c0 85.9-69.68 155.53-155.63 155.53-4.84 0-9.62-.22-14.35-.66 79.22-7.23 141.27-73.81 141.27-154.87s-62.05-147.64-141.27-154.87c4.73-.44 9.51-.66 14.35-.66 85.95 0 155.63 69.64 155.63 155.53z" fill="#a5babf"/><path d="m226 260.122c-8.284 0-15 6.712-15 14.99v89.423c0 8.279 6.716 14.99 15 14.99s15-6.712 15-14.99v-89.423c0-8.278-6.716-14.99-15-14.99z" fill="#e8f4f9"/><path d="m286 260.122c-8.284 0-15 6.712-15 14.99v89.423c0 8.279 6.716 14.99 15 14.99s15-6.712 15-14.99v-89.423c0-8.278-6.716-14.99-15-14.99z" fill="#e8f4f9"/><path d="m451 7.5-80 97.7h-160l80-97.7z" fill="#f55c80"/><path d="m451 7.5-80 97.7h-39l80-97.7z" fill="#cc5466"/><path d="m301 105.2h-160l-20.54-25.08-59.46-72.62h160z" fill="#f55c80"/><path d="m301 105.2h-160l-20.54-25.08h130.94l-59.46-72.62h29.06z" fill="#cc5466"/></g><g><path d="m248.5 275.113c0-12.401-10.093-22.491-22.5-22.491s-22.5 10.089-22.5 22.491v89.423c0 12.401 10.093 22.49 22.5 22.49s22.5-10.089 22.5-22.49zm-15 89.423c0 4.13-3.364 7.49-7.5 7.49s-7.5-3.36-7.5-7.49v-89.423c0-4.13 3.364-7.491 7.5-7.491s7.5 3.36 7.5 7.491z"/><path d="m286 252.622c-12.407 0-22.5 10.089-22.5 22.491v89.423c0 12.401 10.093 22.49 22.5 22.49s22.5-10.089 22.5-22.49v-89.423c0-12.401-10.093-22.491-22.5-22.491zm7.5 111.914c0 4.13-3.364 7.49-7.5 7.49s-7.5-3.36-7.5-7.49v-89.423c0-4.13 3.364-7.491 7.5-7.491s7.5 3.36 7.5 7.491z"/><path d="m331.306 217.742c-3.334-2.459-8.029-1.752-10.488 1.581s-1.751 8.029 1.581 10.488c9.255 6.83 17.38 15.009 24.152 24.312 1.468 2.017 3.753 3.087 6.07 3.087 1.53 0 3.075-.467 4.407-1.437 3.349-2.438 4.088-7.129 1.65-10.478-7.674-10.542-16.883-19.812-27.372-27.553z"/><path d="m182.168 216.669c-11.098 7.947-20.803 17.579-28.846 28.627-2.438 3.349-1.699 8.04 1.65 10.478 1.332.97 2.876 1.437 4.407 1.437 2.317 0 4.602-1.07 6.07-3.087 7.097-9.75 15.66-18.248 25.452-25.26 3.368-2.411 4.143-7.096 1.731-10.464-2.411-3.368-7.096-4.144-10.464-1.731z"/><path d="m357.028 383.874c-3.35-2.438-8.04-1.698-10.478 1.65-6.771 9.303-14.897 17.482-24.152 24.312-3.333 2.459-4.041 7.155-1.581 10.488 1.471 1.993 3.74 3.047 6.041 3.047 1.547 0 3.107-.477 4.448-1.466 10.489-7.74 19.698-17.011 27.373-27.554 2.437-3.348 1.699-8.039-1.651-10.477z"/><path d="m190.901 410.784c-9.792-7.012-18.355-15.51-25.452-25.26-2.437-3.347-7.127-4.089-10.477-1.649-3.349 2.438-4.088 7.128-1.65 10.477 8.042 11.049 17.748 20.681 28.846 28.628 1.323.947 2.849 1.403 4.36 1.403 2.337 0 4.64-1.089 6.104-3.134 2.412-3.369 1.637-8.054-1.731-10.465z"/><path d="m457.778 4.29c-1.24-2.62-3.88-4.29-6.778-4.29h-160c-2.249 0-4.378 1.009-5.803 2.749l-29.197 35.656-29.197-35.656c-1.425-1.74-3.554-2.749-5.803-2.749h-160c-2.898 0-5.538 1.67-6.778 4.29s-.861 5.72.976 7.962l23.877 29.16c2.624 3.205 7.35 3.676 10.554 1.051 3.205-2.624 3.676-7.35 1.051-10.554l-13.845-16.909h20.613l67.717 82.697h-20.613l-33.194-40.537c-2.624-3.205-7.35-3.676-10.554-1.051-3.205 2.624-3.676 7.35-1.051 10.554l25.412 31.034h-4.165c-4.142 0-7.5 3.358-7.5 7.5s3.358 7.5 7.5 7.5h51.887l4.449 31.744c-32.243 14.444-60.363 37.72-80.785 67.928-2.32 3.431-1.418 8.094 2.013 10.414 3.433 2.32 8.095 1.418 10.414-2.013 5.005-7.404 10.512-14.356 16.458-20.823l10.083 10.077c-26.479 28.994-42.648 67.545-42.648 109.8s16.169 80.806 42.648 109.8l-10.019 10.013c-29.042-31.564-46.795-73.656-46.795-119.813 0-25.167 5.169-49.479 15.365-72.259 1.692-3.781-.001-8.218-3.782-9.91-3.784-1.693-8.218.001-9.91 3.782-11.064 24.721-16.674 51.094-16.674 78.387.001 105.967 86.264 192.176 192.296 192.176s192.295-86.209 192.295-192.176c0-77.976-46.71-145.253-113.635-175.355l4.453-31.772h51.887c4.142 0 7.5-3.358 7.5-7.5s-3.358-7.5-7.5-7.5h-4.165l69.968-85.446c1.836-2.242 2.216-5.342.975-7.961zm-163.226 10.71h19.613l-38.665 47.219-9.806-11.976zm-77.104 0 67.717 82.697h-19.308l-67.717-82.697zm106.518 97.697-3.645 26.008c-20.12-7.158-41.774-11.057-64.321-11.057-22.24 0-43.952 3.827-64.323 11.049l-3.644-26zm-207.131-97.697h61.918l67.717 82.697h-61.918zm139.165 482c-46.186 0-88.305-17.74-119.89-46.76l10.018-10.012c29.012 26.464 67.589 42.625 109.871 42.625 41.11 0 80.181-15.471 109.924-42.572l9.965 9.958c-31.583 29.021-73.701 46.761-119.888 46.761zm130.5-296.989c29.042 31.564 46.795 73.656 46.795 119.813s-17.754 88.248-46.795 119.813l-9.964-9.957c5.068-5.551 9.785-11.487 14.103-17.781 2.343-3.416 1.474-8.084-1.942-10.427-3.417-2.343-8.084-1.473-10.427 1.942-27.678 40.351-73.387 64.44-122.271 64.44-81.679 0-148.129-66.405-148.129-148.029s66.451-148.03 148.13-148.03 148.129 66.406 148.129 148.029c0 19.624-3.779 38.684-11.232 56.649-1.587 3.826.228 8.214 4.054 9.802 3.826 1.585 8.213-.228 9.802-4.054 8.213-19.797 12.377-40.79 12.377-62.397 0-42.255-16.169-80.806-42.648-109.8zm-10.61-10.603-10.019 10.012c-29.012-26.465-67.589-42.625-109.871-42.625s-80.859 16.161-109.871 42.625l-10.084-10.077c32.372-29.729 74.993-46.695 119.955-46.695 46.186 0 88.305 17.74 119.89 46.76zm-8.442-91.711h-19.613l15.686-19.156c2.624-3.205 2.154-7.93-1.051-10.554-3.205-2.625-7.93-2.153-10.554 1.051l-23.468 28.659h-23.896l-19.359-23.641 48.359-59.056h62.613l-22.697 27.718c-2.625 3.205-2.154 7.93 1.051 10.554 1.394 1.142 3.076 1.697 4.747 1.697 2.171 0 4.324-.938 5.807-2.749l30.479-37.22h19.613z"/><circle cx="256" cy="200.501" r="7.5"/><circle cx="215.16" cy="207.697" r="7.5"/><circle cx="296.84" cy="207.696" r="7.5"/><circle cx="256" cy="439.147" r="7.5"/><circle cx="215.16" cy="431.951" r="7.5"/><circle cx="296.84" cy="431.952" r="7.5"/><circle cx="375.4" cy="319.827" r="7.5"/><circle cx="368.204" cy="278.987" r="7.5"/><circle cx="368.205" cy="360.667" r="7.5"/><circle cx="136.754" cy="319.827" r="7.5"/><circle cx="143.95" cy="278.987" r="7.5"/><circle cx="143.949" cy="360.667" r="7.5"/></g></svg>